<svg xmlns="http://www.w3.org/2000/svg" width="199.98" height="133.32" viewBox="0 0 1800 1200">
  <defs>
    <style>
      .cls-1, .cls-2 {
        fill-rule: evenodd;
      }

      .cls-2 {
        fill: #393939;
      }
    </style>
  </defs>
  <path id="R_O_S_H" data-name="R O S H" class="cls-1" d="M149.193,493.015c46.593,0,84.715,56.758,84.715,127.071V734.451a55.065,55.065,0,0,0,110.129,0h-8.472c0,16.1-7.624,28.8-16.943,28.8s-16.943-12.707-16.943-28.8V620.086c0-62.688-44.051-116.059-111.823-131.307,67.772-15.249,111.823-68.619,111.823-131.308V323.586c0-74.549-60.994-135.544-152.486-135.544H13.65v8.472H47.536V772.572H13.65v8.472H149.193v-8.472H115.307V493.015h33.886Zm0-296.5c46.593,0,84.715,56.759,84.715,127.072v33.885c0,70.313-38.122,127.072-84.715,127.072H115.307V196.514h33.886ZM737.947,653.972c0,70.313-25.414,127.072-67.772,127.072S602.4,724.285,602.4,653.972V315.114c0-70.313,25.414-127.072,67.771-127.072s67.772,56.759,67.772,127.072V653.972Zm-203.315,0c0,74.549,56.759,135.543,135.543,135.543s135.543-60.994,135.543-135.543V315.114c0-74.549-56.758-135.543-135.543-135.543S534.632,240.565,534.632,315.114V653.972ZM1020.89,781.044h8.47c0-27.109,8.47-38.969,17.79-42.357,21.18,31.344,54.22,50.828,99.97,50.828,79.63,0,126.22-68.619,126.22-152.486,0-176.206-191.45-188.913-191.45-347.329,0-60.148,23.72-99.116,69.46-99.116,51.68,0,96.58,55.911,96.58,124.53h8.47V188.042h-8.47c0,20.332-10.17,30.5-22.88,30.5-19.48-23.72-47.44-38.969-86.4-38.969-75.4,0-117.76,64.383-117.76,144.015,0,177.9,191.46,190.607,191.46,347.329,0,60.147-32.19,107.587-77.94,107.587-55.91,0-105.05-59.3-105.05-133h-8.47V781.044Zm630.27-593v8.472h33.89V480.307h-118.6V196.514h33.88v-8.472H1464.79v8.472h33.88V772.572h-33.88v8.472h135.54v-8.472h-33.88V488.779h118.6V772.572h-33.89v8.472H1786.7v-8.472h-33.88V196.514h33.88v-8.472H1651.16Z"/>
  <path id="M_A_D_E" data-name="M  A  D  E" class="cls-2" d="M1142.69,941.866h-14.65v99.974h9.71q3.84,0.375,4.94,4.95h-50.72v-4.95h14.65V954.5l-40.28,93.75h-3.48l-39.37-78.369v71.959h9.71q3.84,0.375,4.94,4.95h-36.99v-4.95h14.65V941.866h-14.65v-4.944h30.76l39.74,82.4,34.97-82.4h36.07v4.944Zm145.02,104.924v-4.95h12.64l-13.74-35.16h-36.98l-13.37,35.16h9.7a10.464,10.464,0,0,1,2.02.18q2.565,0.555,2.56,4.77h-33.32v-4.95h11.72l40.28-104.918h11.35l42.85,104.918h5.67a8.87,8.87,0,0,1,2.02.18q2.565,0.555,2.56,4.77h-45.96Zm-19.77-88.445-16.3,42.845h32.78Zm195-21.423q19.965,0,34.79,9.521,22.89,14.832,22.89,45.594,0,24.169-16.11,39.363-16.3,15.39-41.38,15.39h-53.29v-4.95h14.65V941.866h-14.65v-4.944h53.1Zm-15.93,4.944v99.974h16.12a34.484,34.484,0,0,0,10.98-1.65q21.435-6.945,21.43-48.886,0-16.843-3.3-27.832-6.78-21.6-29.11-21.606h-16.12Zm242.8,29.48-3.48-11.353a28.052,28.052,0,0,0-1.28-3.479q-5.865-14.647-19.96-14.648h-23.43v45.593h36.07v5.493h-36.07v48.888h23.43a24.008,24.008,0,0,0,6.78-.91q9.51-2.94,14.28-17.22l3.66-11.35h4.76l-0.73,34.43h-89.35v-4.95h14.64V941.866h-14.64v-4.944h89.35l0.73,34.424h-4.76Z"/>
  <path id="_" data-name="|" class="cls-1" d="M918.8,1071.75V927.83H905.434v143.92H918.8Z"/>
</svg>
